<?xml version="1.0" encoding="UTF-8" standalone="no"?>
<!-- Creator: CorelDRAW X7 -->

<svg
   xml:space="preserve"
   width="4.6281309in"
   height="4.9673052in"
   version="1.1"
   style="clip-rule:evenodd;fill-rule:evenodd;image-rendering:optimizeQuality;shape-rendering:geometricPrecision;text-rendering:geometricPrecision"
   viewBox="0 0 4628.0092 4967.1746"
   id="svg6"
   xmlns:xlink="http://www.w3.org/1999/xlink"
   xmlns="http://www.w3.org/2000/svg"
   xmlns:svg="http://www.w3.org/2000/svg">
 <defs
   id="defs3"><linearGradient
     id="linearGradient14"><stop
       style="stop-color:#008bd0;stop-opacity:1;"
       offset="0.01392667"
       id="stop16" /><stop
       style="stop-color:#00ffb6;stop-opacity:1;"
       offset="1"
       id="stop14" /><stop
       style="stop-color:#00ff26;stop-opacity:0;"
       offset="1"
       id="stop15" /></linearGradient><style
     type="text/css"
     id="style1">
   <![CDATA[
    .str0 {stroke:black;stroke-width:6.94488}
    .fil0 {fill:black}
    .fil4 {fill:black;fill-rule:nonzero}
    .fil2 {fill:url(#id0);fill-rule:nonzero}
    .fil1 {fill:url(#id1);fill-rule:nonzero}
    .fil3 {fill:url(#id2);fill-rule:nonzero}
   ]]>
  </style><linearGradient
     id="id2-2"
     gradientUnits="userSpaceOnUse"
     xlink:href="#id1-3"
     x1="6959.4102"
     y1="6266.3501"
     x2="5292.8701"
     y2="8369.3701"
     gradientTransform="translate(-380.78552,-307.93405)">
  </linearGradient><linearGradient
     id="id1-3"
     gradientUnits="userSpaceOnUse"
     x1="7151.96"
     y1="3722.22"
     x2="4236.5601"
     y2="7401.1802">
   <stop
   offset="1"
   style="stop-color:#00bcd0;stop-opacity:1;"
   id="stop9" />
   <stop
   offset="1"
   style="stop-color:#61f0ff;stop-opacity:1;"
   id="stop10" />
   <stop
   offset="1"
   style="stop-opacity:1; stop-color:aqua"
   id="stop11" />
  </linearGradient><linearGradient
     xlink:href="#linearGradient14"
     id="linearGradient16"
     gradientUnits="userSpaceOnUse"
     x1="3014.2058"
     y1="5253.4819"
     x2="7613.2061"
     y2="5253.4819" /></defs>
 <g
   id="Layer_x0020_1"
   transform="translate(-3014.2059,-2916.8913)">
  <metadata
   id="CorelCorpID_0Corel-Layer" />
  
  
  
  
  
 <path
   class="fil1"
   d="m 7347.2145,7064.066 c -5,0 -10,-3 -15,-7 -9,-10 -2,-22 22,-36 19,-10 31,-12 36,-8 33,-38 65,-76 93,-115 29,-38 58,-76 87,-115 l -15,15 c -19,19 -36,19 -50,0 -5,-10 2,-24 22,-44 24,-14 40,-14 50,0 v 22 l 65,-108 -58,-36 c -5,0 -7,1 -7,4 0,2 -2,3 -7,3 -24,15 -41,17 -51,7 -4,-14 0,-28 15,-43 l -87,-50 c 5,9 -2,24 -21,43 -29,19 -48,19 -58,0 -9,-19 -2,-36 22,-50 9,-5 21,-8 36,-8 l -295,-180 c -29,20 -48,20 -58,0 -5,-9 -5,-21 0,-36 l -57,-36 -22,22 c -34,24 -58,24 -72,0 -19,-19 -12,-38 22,-58 l -58,-43 c 0,24 -12,43 -36,58 -38,24 -65,24 -79,0 -15,-24 -5,-48 29,-72 9,-5 15,-7 18,-7 2,0 8,-3 18,-8 l -29,-14 c -15,24 -29,47 -43,68 -15,22 -29,45 -44,69 10,24 -2,48 -36,72 -19,9 -31,14 -36,14 -24,34 -51,65 -82,94 -31,29 -61,55 -90,79 29,-10 48,-7 57,7 10,10 11,21 4,33 -7,12 -18,22 -32,32 -29,24 -53,26 -72,7 -10,-14 -8,-31 7,-50 -15,14 -30,27 -47,39 -17,12 -35,23 -54,33 14,0 26,5 36,14 10,29 0,51 -29,65 -33,24 -60,26 -79,7 -5,-9 -2,-24 7,-43 -110,67 -233,118 -367,151 0,24 -12,43 -36,58 -33,24 -60,26 -79,7 -5,-10 -5,-22 0,-36 -34,5 -66,8 -97,11 -31,2 -66,6 -105,10 15,24 5,48 -28,72 -39,24 -68,27 -87,8 -19,-29 -7,-56 36,-80 -9,-4 -19,-9 -29,-14 -9,-5 -19,-10 -28,-14 -10,24 -24,43 -44,57 -43,24 -72,24 -86,0 -19,-29 -7,-55 36,-79 5,-5 10,-7 14,-7 5,0 10,-2 15,-7 -43,-29 -77,-67 -101,-115 l -7,7 c -48,33 -82,36 -101,7 -14,-29 0,-58 43,-86 15,-15 29,-22 43,-22 v -36 c -33,14 -57,10 -71,-14 -10,-10 -11,-24 -4,-44 7,-19 23,-33 47,-43 14,-14 33,-21 57,-21 0,-10 5,-24 15,-44 -53,24 -89,24 -108,0 -10,-9 -10,-24 0,-43 9,-19 24,-36 43,-50 53,-34 89,-36 108,-7 v 7 l 14,-15 c -19,-38 -5,-69 43,-93 5,-5 17,-12 36,-22 5,-5 12,-17 22,-36 -38,24 -70,24 -94,0 0,-9 -1,-15 -3,-18 -3,-2 -1,-8 3,-18 l -36,22 c 10,0 20,5 29,14 24,34 10,67 -43,101 -53,34 -89,36 -108,7 -5,-9 -7,-21 -7,-36 l -36,22 c 14,0 26,5 36,14 14,34 -2,67 -50,101 -53,34 -89,36 -108,7 -10,-14 -10,-29 0,-43 l -44,29 c 15,0 27,7 36,21 24,24 10,56 -43,94 -53,34 -91,36 -115,7 -10,-14 -10,-29 0,-43 l -43,29 c 14,0 26,7 36,21 9,10 11,26 3,47 -7,22 -22,40 -46,54 -24,15 -46,22 -65,22 -19,0 -34,-7 -43,-22 -10,-14 -10,-29 0,-43 l -51,29 c 19,0 34,7 43,21 20,29 3,63 -50,101 -48,34 -84,34 -108,0 -10,-14 -10,-29 0,-43 l -50,29 c 19,0 33,7 43,21 24,34 9,68 -43,101 -53,34 -91,34 -115,0 -10,-9 -10,-24 0,-43 l -44,29 c 15,0 27,7 36,21 24,34 10,67 -43,101 -24,14 -45,22 -65,22 -19,0 -33,-8 -43,-22 -9,-5 -9,-19 0,-43 l -50,29 c 24,9 38,16 43,21 14,34 -2,67 -50,101 -44,38 -80,38 -108,0 -10,-10 -10,-22 0,-36 l -44,29 c 15,0 27,5 36,14 24,34 10,67 -43,101 -53,34 -89,36 -108,7 -9,-19 -12,-33 -7,-43 l -36,29 c 10,0 19,5 29,14 24,34 9,67 -43,101 l -8,7 c 18,14 35,28 51,43 v 0 c -19,-38 -5,-69 43,-93 48,-29 84,-31 108,-7 10,14 10,31 0,50 -10,19 -24,34 -43,43 -42,27 -73,34 -94,21 14,13 28,25 43,37 39,-19 63,-17 72,7 10,10 10,26 0,50 10,5 20,12 29,22 l 22,-22 c 43,-24 77,-24 101,0 14,20 4,46 -29,80 5,4 9,8 14,10 5,3 12,9 22,18 9,-24 24,-43 43,-57 43,-29 74,-29 94,0 19,29 7,55 -36,79 -20,9 -29,14 -29,14 101,63 201,111 302,144 14,0 26,5 36,15 48,19 84,31 108,36 14,0 26,4 36,14 24,10 55,19 94,29 9,0 16,1 21,3 5,3 10,4 15,4 h 7 c 182,53 360,79 532,79 0,-5 3,-8 8,-11 4,-2 9,-8 14,-18 29,-19 48,-19 58,0 9,10 9,22 0,36 67,0 133,-2 198,-7 64,-5 130,-12 198,-21 0,-10 4,-15 14,-15 19,-19 33,-19 43,0 h 7 c 43,-9 87,-19 130,-29 43,-9 86,-19 129,-28 20,-10 29,-15 29,-15 437,-134 806,-369 1109,-705 z m 28,-360 c 24,-14 44,-14 58,0 10,19 2,34 -22,43 -19,15 -38,17 -57,7 -5,-14 2,-31 21,-50 z m -7,158 c 19,-19 34,-19 43,0 10,10 3,24 -21,43 -19,20 -34,20 -43,0 -10,-14 -3,-28 21,-43 z m -129,-367 c 28,-14 50,-14 64,0 10,19 0,39 -28,58 -29,19 -48,19 -58,0 -14,-10 -7,-29 22,-58 z m -15,159 c 29,-15 48,-15 58,0 14,14 7,31 -22,50 -24,14 -43,14 -57,0 -15,-14 -7,-31 21,-50 z m -288,-252 c 39,-29 63,-29 72,0 20,19 10,38 -28,57 -29,24 -53,27 -72,7 -10,-24 0,-45 28,-64 z m -144,-51 c 34,-24 58,-24 72,0 10,19 0,41 -28,65 -34,29 -60,29 -80,0 -9,-19 3,-41 36,-65 z m -14,159 c 34,-24 55,-24 65,0 19,19 9,38 -29,57 -29,29 -50,31 -65,7 -19,-24 -9,-45 29,-64 z m -151,-51 c 33,-19 57,-19 72,0 9,10 11,21 3,33 -7,12 -18,22 -32,32 -38,29 -62,29 -72,0 -14,-14 -5,-36 29,-65 z m -15,159 c 34,-20 58,-20 72,0 10,19 0,40 -28,64 -34,15 -58,15 -72,0 -10,-19 0,-40 28,-64 z m -165,108 c 14,-10 29,-15 43,-15 15,0 24,5 29,15 14,14 5,36 -29,64 -33,15 -57,15 -72,0 -9,-14 0,-36 29,-64 z m -158,108 c 33,-15 57,-15 72,0 9,14 0,35 -29,64 -39,19 -63,19 -72,0 -15,-14 -5,-36 29,-64 z m -152,-51 c 39,-19 63,-19 72,0 15,24 5,46 -28,65 -39,29 -63,31 -72,7 -15,-24 -5,-48 28,-72 z m -165,115 c 33,-24 60,-26 79,-7 10,24 -2,48 -36,72 -34,14 -58,14 -72,0 -19,-24 -10,-46 29,-65 z m -310,58 c 34,-24 60,-24 80,0 14,24 2,45 -36,65 -34,24 -60,26 -80,7 -9,-24 3,-48 36,-72 z m -14,158 c 38,-29 62,-31 72,-7 14,24 5,48 -29,72 -14,10 -29,14 -43,14 -14,0 -24,-4 -29,-14 -9,-10 -11,-20 -3,-32 7,-12 18,-23 32,-33 z m -151,-50 c 33,-24 60,-24 79,0 19,19 7,43 -36,72 -38,19 -62,19 -72,0 -14,-24 -5,-48 29,-72 z m -151,-51 c 43,-24 72,-24 86,0 14,20 2,44 -36,72 -38,24 -67,27 -86,8 -10,-29 2,-56 36,-80 z m -137,-208 c 43,-29 74,-29 93,0 15,24 3,52 -36,86 -43,29 -74,29 -93,0 -14,-24 -2,-53 36,-86 z m -799,388 c 19,-9 37,-15 54,-18 17,-2 30,4 40,18 19,29 4,58 -44,87 -43,29 -74,29 -93,0 -19,-29 -5,-58 43,-87 z m -94,44 c -52,24 -86,24 -100,0 -20,-29 -5,-60 43,-94 19,-10 38,-16 57,-18 20,-2 34,4 44,18 9,10 9,24 0,43 -10,19 -24,36 -44,51 z m 166,-116 c -48,29 -84,32 -108,8 -10,-10 -10,-24 0,-44 10,-19 24,-36 43,-50 48,-34 82,-34 101,0 9,10 11,24 3,43 -7,19 -20,34 -39,43 z m 144,51 c -43,29 -75,29 -94,0 -19,-29 -7,-58 36,-87 19,-9 39,-15 58,-18 19,-2 33,4 43,18 14,24 0,53 -43,87 z m -15,151 c -19,10 -37,16 -54,18 -16,2 -30,-1 -39,-11 -14,-33 -3,-62 36,-86 19,-10 37,-16 54,-18 17,-3 30,1 39,11 15,33 3,62 -36,86 z m -28,-396 c 19,-14 38,-22 57,-22 19,0 34,8 43,22 20,34 5,62 -43,86 -19,15 -38,22 -57,22 -20,0 -34,-5 -44,-14 -14,-34 0,-65 44,-94 z m 122,367 c 43,-24 72,-26 86,-7 20,29 8,55 -36,79 -38,29 -67,31 -86,7 -14,-24 -2,-50 36,-79 z m 72,-79 c -19,10 -37,16 -54,18 -17,2 -30,-4 -40,-18 -19,-29 -7,-55 36,-79 44,-34 75,-36 94,-7 19,28 7,57 -36,86 z m 14,-151 c -43,24 -76,24 -100,0 -10,-10 -10,-24 0,-43 9,-20 24,-34 43,-44 43,-33 74,-36 93,-7 15,29 3,60 -36,94 z m -43,-245 c 39,-33 72,-36 101,-7 10,14 10,31 0,50 -10,19 -24,34 -43,43 -48,34 -82,36 -101,8 -14,-34 0,-65 43,-94 z m 123,367 c 38,-33 67,-36 86,-7 19,29 7,55 -36,79 -43,24 -72,27 -86,7 -20,-28 -8,-55 36,-79 z m 64,-79 c -38,24 -69,24 -93,0 -10,-10 -10,-23 0,-40 9,-16 24,-30 43,-39 38,-29 70,-31 94,-7 9,9 9,24 0,43 -10,19 -24,33 -44,43 z m 15,-151 c -43,29 -75,29 -94,0 -9,-10 -11,-24 -3,-43 7,-20 22,-34 46,-44 44,-33 75,-35 94,-7 14,34 0,65 -43,94 z m -43,-245 c 48,-33 81,-36 100,-7 24,34 10,65 -43,94 -38,33 -72,36 -101,7 -9,-15 -9,-31 0,-51 10,-19 24,-33 44,-43 z m 180,439 c -44,24 -72,24 -87,0 -19,-19 -7,-45 36,-79 39,-29 67,-29 87,0 14,24 2,50 -36,79 z m -15,159 c -43,24 -72,24 -86,0 -19,-29 -7,-56 36,-80 14,-9 30,-14 47,-14 16,0 27,5 32,14 19,24 10,51 -29,80 z m 29,-310 c -43,29 -74,29 -94,0 -19,-29 -7,-55 36,-79 44,-34 75,-36 94,-7 14,24 2,52 -36,86 z m 14,-158 c -43,33 -74,36 -93,7 -19,-29 -7,-58 36,-86 38,-34 72,-36 101,-8 9,10 9,24 0,44 -10,19 -24,33 -44,43 z m 130,201 c -38,29 -67,29 -86,0 -10,-19 2,-45 36,-79 43,-24 71,-24 86,0 19,29 7,55 -36,79 z m -15,151 c -38,29 -64,32 -79,8 -19,-29 -7,-56 36,-80 34,-24 60,-24 79,0 15,24 3,48 -36,72 z m -100,-503 c -19,14 -39,21 -58,21 -19,0 -33,-5 -43,-14 -19,-39 -5,-70 43,-94 19,-14 39,-21 58,-21 19,0 33,4 43,14 14,34 0,65 -43,94 z m -43,-245 c 19,-15 38,-22 57,-22 19,0 34,5 43,15 24,33 10,67 -43,100 -19,15 -38,22 -57,22 -20,0 -34,-7 -44,-22 -9,-9 -10,-24 -3,-43 7,-19 23,-36 47,-50 z m -166,108 c 48,-29 84,-31 108,-7 14,33 0,67 -43,100 -24,15 -46,22 -65,22 -19,0 -34,-7 -43,-22 -19,-28 -5,-60 43,-93 z m -166,108 c 53,-34 89,-34 108,0 20,29 5,60 -43,93 -48,34 -84,34 -108,0 -9,-9 -9,-24 0,-43 10,-19 24,-36 43,-50 z m -158,108 c 19,-15 38,-22 58,-22 19,0 33,7 43,22 24,24 9,55 -43,93 -20,15 -39,22 -58,22 -19,0 -34,-7 -43,-22 -10,-9 -11,-24 -4,-43 7,-19 23,-36 47,-50 z m -165,108 c 48,-34 83,-34 107,0 10,9 10,24 0,43 -9,19 -24,36 -43,50 -52,34 -88,36 -108,7 -19,-33 -4,-67 44,-100 z m -166,108 c 24,-10 46,-16 65,-18 19,-3 33,3 43,18 19,28 5,60 -43,93 -48,29 -84,31 -108,7 -15,-33 0,-67 43,-100 z m -158,108 c 19,-10 38,-16 57,-18 19,-3 34,3 43,18 24,33 10,64 -43,93 -19,15 -38,22 -57,22 -20,0 -34,-5 -44,-15 -24,-33 -9,-67 44,-100 z m 43,252 c -19,9 -39,15 -58,18 -19,2 -33,-4 -43,-18 -10,-10 -10,-24 0,-44 10,-19 24,-36 43,-50 19,-10 39,-16 58,-18 19,-2 33,4 43,18 19,29 5,60 -43,94 z m 151,43 c -19,9 -38,15 -58,18 -19,2 -33,-4 -43,-18 -14,-24 0,-53 43,-87 44,-28 75,-28 94,0 14,24 2,53 -36,87 z m 130,201 c -44,24 -72,24 -87,0 -19,-29 -7,-55 36,-79 43,-24 72,-24 87,0 19,19 7,46 -36,79 z m 14,-158 c -38,29 -70,31 -94,7 -9,-9 -9,-24 0,-43 10,-19 24,-34 44,-43 19,-10 37,-16 54,-18 16,-3 30,3 39,18 10,9 10,23 0,39 -9,17 -24,30 -43,40 z m 137,201 c -44,24 -72,24 -87,0 -14,-24 -2,-48 36,-72 15,-9 30,-15 47,-17 17,-3 28,1 32,10 20,24 10,51 -28,79 z m 14,-158 c -38,34 -67,36 -86,7 -19,-28 -7,-55 36,-79 38,-29 67,-31 86,-7 19,29 7,55 -36,79 z m 130,202 c -34,28 -60,28 -80,0 -14,-24 -2,-46 36,-65 34,-24 60,-27 80,-7 9,24 -3,48 -36,72 z m 14,-151 c -34,28 -60,28 -79,0 -15,-24 -3,-48 36,-72 38,-29 65,-32 79,-8 19,29 7,56 -36,80 z m 137,194 c -39,29 -63,31 -72,7 -15,-24 -5,-48 29,-72 33,-14 57,-14 72,0 9,10 10,20 3,32 -7,12 -18,23 -32,33 z m 14,-151 c -33,28 -60,28 -79,0 -19,-20 -7,-43 36,-72 14,-10 29,-15 43,-15 15,0 24,5 29,15 14,24 5,48 -29,72 z m 15,-151 c -44,24 -72,24 -87,0 -9,-29 3,-56 36,-80 43,-24 72,-24 87,0 19,29 7,56 -36,80 z m 115,352 c -10,10 -22,15 -36,15 -15,0 -24,-5 -29,-15 -14,-14 -5,-36 29,-65 9,-9 21,-14 36,-14 14,0 24,5 29,14 14,15 4,36 -29,65 z m 14,-158 c -29,24 -53,26 -72,7 -9,-29 0,-53 29,-72 38,-19 65,-19 79,0 15,24 3,46 -36,65 z m 22,-151 c -43,29 -70,29 -79,0 -20,-19 -10,-43 28,-72 34,-24 60,-24 80,0 14,24 4,48 -29,72 z m 115,352 c -34,20 -55,20 -65,0 -19,-19 -9,-38 29,-57 29,-19 50,-19 65,0 5,14 -5,33 -29,57 z m 14,-158 c -28,24 -52,26 -72,7 -9,-29 0,-50 29,-65 34,-24 58,-24 72,0 19,20 10,39 -29,58 z m 15,-151 c -39,29 -63,29 -72,0 -15,-14 -5,-36 29,-65 38,-29 62,-29 71,0 15,15 5,36 -28,65 z m 14,-151 c -33,29 -60,29 -79,0 -10,-24 2,-48 36,-72 34,-24 60,-24 79,0 10,24 -2,48 -36,72 z m 101,504 c -29,19 -48,19 -58,0 -9,-20 -2,-36 22,-51 29,-19 50,-21 65,-7 9,24 0,43 -29,58 z m 14,-152 c -24,20 -45,20 -65,0 -9,-19 0,-38 29,-57 34,-24 55,-24 65,0 14,14 5,33 -29,57 z m 22,-158 c -39,29 -63,31 -72,7 -19,-24 -10,-45 29,-64 33,-24 57,-24 72,0 9,19 0,38 -29,57 z m 14,-151 c -33,29 -60,29 -79,0 -10,-19 2,-41 36,-65 34,-24 58,-24 72,0 14,15 5,36 -29,65 z m 15,-151 c -39,19 -65,19 -80,0 -14,-24 -4,-48 29,-72 43,-24 70,-24 79,0 20,19 10,43 -28,72 z m 100,504 c -28,19 -48,19 -57,0 -15,-15 -7,-32 21,-51 29,-29 48,-31 58,-7 19,19 12,38 -22,58 z m 15,-152 c -24,20 -46,20 -65,0 -10,-24 0,-43 29,-57 24,-24 45,-26 65,-7 9,24 0,45 -29,64 z m 14,-158 c -33,24 -55,27 -65,7 -19,-24 -9,-45 29,-64 29,-29 51,-32 65,-8 14,24 5,46 -29,65 z m 15,-151 c -34,24 -58,24 -72,0 -15,-14 -5,-36 28,-65 34,-24 60,-24 80,0 9,19 -3,41 -36,65 z m 108,504 c -29,14 -48,14 -58,0 -10,-5 -11,-12 -4,-22 8,-9 16,-19 26,-29 24,-14 43,-14 57,0 10,20 3,36 -21,51 z m 14,-151 c -29,14 -50,14 -65,0 -9,-20 0,-39 29,-58 29,-19 48,-19 58,0 19,19 12,38 -22,58 z m 14,-159 c -33,24 -55,27 -64,8 -20,-20 -12,-39 21,-58 34,-24 55,-26 65,-7 19,19 12,38 -22,57 z m 15,-151 c -34,24 -58,24 -72,0 -10,-24 0,-43 29,-57 28,-24 52,-27 72,-8 9,29 0,51 -29,65 z m 101,504 c -24,14 -41,17 -51,7 -9,-19 -2,-36 22,-50 24,-15 41,-15 50,0 10,19 3,33 -21,43 z m 14,-151 c -24,14 -43,14 -58,0 -9,-15 0,-31 29,-51 24,-14 41,-14 51,0 14,15 7,32 -22,51 z m 14,-151 c -28,19 -48,19 -57,0 -15,-10 -7,-29 21,-58 29,-14 51,-14 65,0 10,24 0,43 -29,58 z m 15,-159 c -24,24 -46,27 -65,8 -5,-20 5,-39 29,-58 33,-24 55,-26 65,-7 19,19 9,38 -29,57 z m 21,-151 c -38,29 -62,29 -72,0 -19,-19 -9,-38 29,-57 29,-24 53,-27 72,-8 10,24 0,46 -29,65 z m 15,-151 c -34,19 -60,19 -79,0 -15,-24 -3,-46 36,-65 28,-24 52,-26 72,-7 14,24 4,48 -29,72 z m 86,655 c -24,14 -41,17 -50,7 -10,-9 -12,-18 -7,-25 4,-7 11,-16 21,-25 29,-19 48,-19 58,0 9,19 2,33 -22,43 z m 14,-151 c -28,19 -48,19 -57,0 -10,-19 -3,-36 21,-50 29,-20 48,-20 58,0 10,19 2,35 -22,50 z m 15,-151 c -29,19 -48,19 -58,0 -19,-19 -12,-39 22,-58 29,-19 48,-19 57,0 10,15 3,34 -21,58 z m 14,-159 c -24,24 -45,27 -65,8 -9,-24 0,-46 29,-65 24,-19 46,-19 65,0 10,24 0,43 -29,57 z m 15,-151 c -39,19 -60,19 -65,0 -15,-14 -5,-36 29,-65 33,-19 55,-19 64,0 15,20 5,41 -28,65 z m 86,662 c -24,10 -38,10 -43,0 -5,-14 0,-28 14,-43 24,-14 41,-14 51,0 9,10 2,24 -22,43 z m 14,-158 c -19,19 -36,22 -50,7 -10,-19 -2,-36 22,-50 24,-15 40,-15 50,0 14,9 7,24 -22,43 z m 15,-151 c -24,19 -41,19 -51,0 -14,-14 -7,-31 22,-50 24,-15 43,-15 58,0 9,19 0,36 -29,50 z m 21,-151 c -28,14 -50,14 -64,0 -10,-24 0,-43 28,-58 29,-19 48,-19 58,0 10,15 2,34 -22,58 z m 15,-159 c -34,24 -55,24 -65,0 -14,-9 -7,-28 22,-57 33,-19 55,-19 64,0 20,19 12,38 -21,57 z m 14,-151 c -38,19 -62,19 -72,0 -9,-19 0,-41 29,-65 34,-14 58,-14 72,0 10,20 0,41 -29,65 z m 87,662 c -24,10 -41,10 -51,0 -9,-19 -2,-33 22,-43 24,-14 41,-14 50,0 10,10 3,24 -21,43 z m 14,-158 c -24,19 -41,19 -50,0 -10,-9 -3,-24 21,-43 24,-14 41,-14 51,0 9,10 2,24 -22,43 z m 14,-151 c -24,14 -43,14 -57,0 -10,-14 0,-31 29,-50 24,-15 40,-15 50,0 14,14 7,31 -22,50 z m 15,-158 c -29,28 -48,31 -58,7 -19,-19 -12,-39 22,-58 29,-14 50,-14 65,0 9,19 0,36 -29,51 z m 14,-152 c -29,20 -50,20 -65,0 -4,-14 5,-33 29,-57 34,-19 55,-19 65,0 19,19 10,38 -29,57 z m 87,663 c -24,9 -39,9 -44,0 -9,-10 -2,-22 22,-36 14,-15 29,-17 43,-8 5,15 -2,29 -21,44 z m 21,-159 c -24,15 -41,17 -50,7 -10,-19 -3,-33 21,-43 15,-14 29,-16 44,-7 9,19 4,34 -15,43 z m 15,-151 c -24,15 -44,15 -58,0 -5,-5 -5,-11 0,-18 5,-7 12,-15 22,-25 24,-14 43,-14 57,0 5,10 -2,24 -21,43 z m 14,-151 c -29,19 -48,19 -58,0 -9,-19 -2,-36 22,-50 29,-20 48,-20 58,0 9,19 2,36 -22,50 z m 14,-158 c -24,24 -45,26 -64,7 -10,-19 0,-39 28,-58 29,-19 48,-19 58,0 14,15 7,31 -22,51 z m 15,-152 c -10,10 -22,15 -36,15 -15,0 -24,-5 -29,-15 -10,-24 0,-43 29,-57 24,-19 45,-19 65,0 9,24 0,43 -29,57 z m 86,663 c -19,9 -33,9 -43,0 -10,-15 -2,-29 22,-44 19,-9 33,-9 43,0 4,10 -3,24 -22,44 z m 15,-159 c -20,20 -34,22 -44,8 -14,-15 -9,-29 15,-44 24,-14 40,-16 50,-7 10,19 2,34 -21,43 z m 14,-151 c -10,10 -19,15 -29,15 -9,0 -17,-5 -21,-15 -10,-14 -3,-29 21,-43 24,-14 41,-17 50,-7 10,19 3,36 -21,50 z m 14,-151 c -24,19 -40,19 -50,0 -14,-14 -7,-31 22,-50 23,-15 43,-15 57,0 14,14 5,31 -29,50 z m 22,-158 c -39,19 -60,21 -65,7 -9,-24 0,-43 29,-58 29,-19 48,-19 57,0 10,19 3,36 -21,51 z m 14,-151 c -33,19 -55,19 -64,0 -20,-20 -12,-39 21,-58 34,-19 55,-19 65,0 19,19 12,38 -22,58 z m 87,662 c -24,9 -39,9 -44,0 -4,-15 0,-29 15,-43 19,-5 33,-5 43,0 5,14 0,28 -14,43 z m 14,-159 c -24,15 -41,17 -50,8 -10,-20 -3,-36 21,-51 24,-9 41,-9 51,0 9,19 2,34 -22,43 z m 14,-151 c -24,19 -40,19 -50,0 -10,-19 -2,-33 22,-43 24,-14 40,-17 50,-7 10,19 2,36 -22,50 z m 15,-151 c -24,14 -43,14 -58,0 -9,-19 0,-36 29,-50 24,-15 41,-17 50,-8 20,20 12,39 -21,58 z m 14,-158 c -29,19 -48,19 -57,0 -15,-15 -8,-31 21,-51 34,-14 55,-16 65,-7 10,24 0,43 -29,58 z m 15,-151 c -24,19 -46,19 -65,0 -10,-20 0,-39 29,-58 38,-19 60,-19 64,0 10,19 0,38 -28,58 z m 86,662 c -19,9 -34,9 -43,0 -5,-10 2,-24 21,-43 20,-10 34,-10 44,0 4,14 -3,28 -22,43 z m 22,-159 c -24,20 -41,20 -51,0 -9,-9 -2,-24 22,-43 19,-9 33,-9 43,0 5,15 0,29 -14,43 z m 14,-151 c -24,15 -43,15 -58,0 -4,-14 3,-31 22,-50 29,-10 48,-10 58,0 4,14 -3,31 -22,50 z m 14,-158 c -28,19 -48,21 -57,7 -10,-19 -3,-36 21,-50 29,-20 48,-22 58,-8 10,20 2,36 -22,51 z m 15,-151 c -24,19 -46,19 -65,0 -10,-15 0,-31 29,-51 29,-28 48,-31 57,-7 20,19 12,39 -21,58 z m 14,-151 c -33,19 -55,19 -65,0 -9,-24 0,-44 29,-58 24,-24 46,-24 65,0 5,14 -5,34 -29,58 z m 87,655 c -20,19 -34,21 -44,7 -9,-15 -2,-29 22,-43 24,-10 38,-10 43,0 10,9 3,21 -21,36 z m 14,-152 c -19,20 -34,20 -43,0 -10,-4 -12,-10 -7,-18 4,-7 12,-15 21,-25 24,-14 41,-14 51,0 4,15 -3,29 -22,43 z m 14,-151 c -24,19 -40,19 -50,0 -10,-19 -2,-36 22,-50 24,-15 40,-15 50,0 10,19 2,36 -22,50 z m 15,-158 c -24,14 -41,17 -51,7 -19,-19 -12,-38 22,-57 24,-15 43,-15 58,0 9,14 0,31 -29,50 z m 21,-151 c -33,19 -55,19 -64,0 -10,-19 0,-36 28,-51 29,-28 48,-31 58,-7 10,24 2,43 -22,58 z m 15,-151 c -34,19 -55,19 -65,0 -19,-20 -12,-39 22,-58 33,-24 55,-26 64,-7 10,19 3,41 -21,65 z m 86,655 c -19,14 -33,16 -43,7 -5,-15 0,-29 14,-43 20,-15 34,-15 44,0 14,14 9,26 -15,36 z m 15,-152 c -24,20 -41,20 -51,0 -9,-9 -2,-24 22,-43 24,-14 41,-14 50,0 5,10 -2,24 -21,43 z m 14,-151 c -29,10 -46,10 -50,0 -10,-19 -3,-36 21,-50 24,-14 41,-14 50,0 10,19 3,36 -21,50 z"
   id="path11"
   style="clip-rule:evenodd;fill:url(#id2-2);fill-rule:nonzero;image-rendering:optimizeQuality;shape-rendering:geometricPrecision;text-rendering:geometricPrecision" /><path
   id="path12"
   class="fil2"
   d="m 5557.4944,2917.2214 c -237.5347,-3.9375 -476.398,27.3494 -715.2726,93.8492 -268.9994,71.9998 -516.0056,185.9916 -742.0052,341.9914 -224.9996,155.9996 -418.0054,340.0113 -579.005,551.0109 -160.9996,210.9996 -285.9933,445.9991 -373.9933,704.9985 -88.9998,258.9996 -133.0124,527.9863 -133.0124,806.9857 0,166.9996 16.0068,332.0089 50.0068,493.0087 34,159.9996 81.9987,316.9963 143.9985,470.9959 66.9998,186.9996 92.9978,354.0076 78.9978,500.0072 -14,146.9998 -39.9978,268.0043 -78.9978,364.0041 -46.9998,114.9998 -92.0067,264.9994 -174.0067,345.9992 l 641.0151,-453.0113 230.7272,-174.7798 82.2732,-58.2057 700.9907,-473.01 c -122.9998,-110.9998 -221.9863,-245.9954 -297.9861,-405.9952 -76,-159.9996 -114.0107,-342.0034 -114.0107,-547.003 0,-220.9996 43.9923,-417.0008 132.9921,-587.0004 87.9998,-169.9996 201.015,-310.0098 341.0148,-421.0094 138.9998,-110.9998 296.9901,-190.984 472.9897,-239.984 175.9996,-48.9998 354.0002,-61.0065 534.9998,-37.0067 179.9996,25 351.0077,87.0039 513.0073,188.0037 161.9998,99.9998 299.9877,244.9928 414.9875,432.9924 l 159.6231,-97.613 c 0.1224,0.2009 0.2642,0.4095 0.3865,0.6103 l 765.9915,-467.9849 c -123.9998,-243.9996 -333.9892,-531.0163 -531.9888,-719.0159 -197.9996,-187.9998 -400.0032,-328.0036 -645.0026,-436.0034 -244.9996,-106.9998 -505.9984,-155.9896 -776.9978,-172.9894 -33.875,-2 -67.7892,-3.2826 -101.7226,-3.8451 z m -14.7091,188.4309 c 30.8769,0.6308 61.7536,1.9265 92.6286,3.9265 245.9997,15 480.9957,66.9987 705.9954,156.9986 223.9998,88.9999 430.9963,213.02 620.9961,372.0199 189.9998,158.9998 350.0056,347.9847 481.0054,565.9844 l -758.9929,463.9975 c -121.9999,-199.9998 -269.0083,-353.9866 -441.0081,-460.9865 -171.9998,-106.9999 -354.0064,-173.0101 -546.0062,-199.01 -191.9998,-26 -381.9956,-12.9996 -568.9954,39.0004 -186.9999,51.9999 -354.9949,136.9983 -503.9948,254.9982 -147.9998,117.9999 -269.0104,267.0068 -362.0103,448.0066 -93.9999,180.9998 -140.9875,389.0073 -140.9875,624.0071 0,217.9997 39.9889,411.9957 120.9888,581.9956 80.9999,169.9998 186.0084,313.9956 317.0083,431.9955 l -744.9959,502.9978 -582.016,411.9968 c 74,-73.9999 133.0005,-162.9984 176.0005,-267.9983 34.9999,-86.9999 58.9992,-196.9882 71.9992,-329.9881 13,-132.9998 -10.9993,-285.0053 -71.9992,-455.0051 -56,-138.9999 -100.0015,-282.0081 -130.0015,-428.008 -31,-145.9998 -45.999,-294.9864 -45.999,-447.9862 0,-252.9998 40.0093,-497.0164 121.0092,-732.0161 79.9999,-234.9998 193.9978,-448.9949 339.9976,-640.9948 145.9999,-191.9998 321.0077,-357.987 526.0075,-499.9868 204.9998,-141.9999 428.9938,-245.0067 673.9935,-311.0067 216.9998,-60.3749 433.2382,-89.3543 649.3767,-84.9383 z"
   style="clip-rule:evenodd;fill:url(#linearGradient16);fill-rule:nonzero;image-rendering:optimizeQuality;shape-rendering:geometricPrecision;text-rendering:geometricPrecision" /></g>
</svg>
