<?xml version="1.0" encoding="UTF-8" standalone="no"?>
<svg
   data-name="Layer 1"
   width="972.94824"
   height="693.55389"
   viewBox="0 0 972.94822 693.55388"
   version="1.1"
   id="svg7"
   sodipodi:docname="freelance.svg"
   inkscape:version="1.3.2 (091e20ef0f, 2023-11-25, custom)"
   xmlns:inkscape="http://www.inkscape.org/namespaces/inkscape"
   xmlns:sodipodi="http://sodipodi.sourceforge.net/DTD/sodipodi-0.dtd"
   xmlns="http://www.w3.org/2000/svg"
   xmlns:svg="http://www.w3.org/2000/svg">
  <defs
     id="defs7" />
  <sodipodi:namedview
     id="namedview7"
     pagecolor="#ffffff"
     bordercolor="#000000"
     borderopacity="0.25"
     inkscape:showpageshadow="2"
     inkscape:pageopacity="0.0"
     inkscape:pagecheckerboard="true"
     inkscape:deskcolor="#d1d1d1"
     inkscape:zoom="0.59438658"
     inkscape:cx="231.33093"
     inkscape:cy="506.40443"
     inkscape:window-width="1920"
     inkscape:window-height="1011"
     inkscape:window-x="0"
     inkscape:window-y="0"
     inkscape:window-maximized="1"
     inkscape:current-layer="svg7"
     showborder="false" />
  <g
     id="g1"
     transform="translate(1082.0072,-652.98752)">
    <path
       d="m -130.2798,1270.94 h -824.19084 a 21.244894,21.244894 0 0 1 -21.22087,-21.2208 V 741.50654 a 15.56435,15.56435 0 0 1 15.5464,-15.54703 h 835.27072 a 15.833482,15.833482 0 0 1 15.81546,15.8158 v 507.94389 a 21.244881,21.244881 0 0 1 -21.22087,21.2208 z"
       fill="#f2f2f2"
       id="path10"
       style="stroke-width:1.28611" />
    <path
       d="m -156.92781,1244.1472 h -768.12434 c -11.25992,0 -20.42035,-8.5782 -20.42035,-19.122 V 782.46709 c 0,-7.81967 6.78811,-14.18178 15.13193,-14.18178 h 778.45047 c 8.48217,0 15.38281,6.46699 15.38281,14.41539 v 442.3245 c 0,10.5438 -9.16072,19.122 -20.42052,19.122 z"
       fill="#ffffff"
       id="path11"
       style="fill:#b3b3b3;stroke-width:1.28611" />
    <path
       d="m -109.35435,744.15098 h -866.63497 v -10.80385 a 21.315733,21.315733 0 0 1 21.29804,-21.28492 h 824.03877 a 21.31563,21.31563 0 0 1 21.29816,21.28492 z"
       fill="#3f3d56"
       id="path12"
       style="stroke-width:1.28611" />
    <circle
       cx="-937.28326"
       cy="728.13861"
       r="5.5089636"
       fill="#ffffff"
       id="circle12"
       style="fill:#ff0000;stroke-width:1.28611" />
    <circle
       cx="-916.37256"
       cy="728.13861"
       r="5.5089636"
       fill="#ffffff"
       id="circle13"
       style="fill:#00ff00;stroke-width:1.28611" />
    <circle
       cx="-895.46191"
       cy="728.13861"
       r="5.5089636"
       fill="#ffffff"
       id="circle14"
       style="fill:#ffff00;stroke-width:1.28611" />
    <path
       d="m -559.21284,865.05114 h -150.22851 a 8.4448,8.4448 0 0 1 0,-16.8896 h 150.22851 a 8.4448,8.4448 0 1 1 0,16.8896 z"
       fill="#cccccc"
       id="path14"
       style="fill:#ffff00;stroke-width:1.28611" />
    <path
       d="m -372.53839,865.05114 h -150.22849 a 8.4448,8.4448 0 0 1 0,-16.8896 h 150.22849 a 8.4448,8.4448 0 1 1 0,16.8896 z"
       fill="#cccccc"
       id="path15"
       style="fill:#00ffff;stroke-width:1.28611" />
    <path
       d="m -372.53839,897.05245 h -261.34424 a 8.444795,8.444795 0 1 1 0,-16.88959 h 261.34424 a 8.444795,8.444795 0 1 1 0,16.88959 z"
       fill="#cccccc"
       id="path16"
       style="fill:#ffff00;stroke-width:1.28611" />
    <path
       d="m -559.21284,832.60531 h -150.22851 a 8.4448,8.4448 0 0 1 0,-16.88958 h 150.22851 a 8.4448,8.4448 0 1 1 0,16.88958 z"
       fill="#cccccc"
       id="path17"
       style="fill:#ff00ff;stroke-width:1.28611" />
    <path
       d="m -476.54273,833.04978 h -42.66844 a 8.4448,8.4448 0 0 1 0,-16.8896 h 42.66844 a 8.4448,8.4448 0 1 1 0,16.8896 z"
       fill="#cccccc"
       id="path18"
       style="fill:#ffff00;stroke-width:1.28611" />
    <path
       d="m -666.77289,897.05245 h -42.66846 a 8.4448,8.4448 0 0 1 0,-16.88959 h 42.66846 a 8.4448,8.4448 0 1 1 0,16.88959 z"
       fill="#cccccc"
       id="path19"
       style="fill:#008080;stroke-width:1.28611" />
    <path
       d="m -559.21284,1164.7155 h -150.22851 a 8.4448,8.4448 0 0 1 0,-16.8896 h 150.22851 a 8.4448,8.4448 0 1 1 0,16.8896 z"
       fill="#cccccc"
       id="path20"
       style="fill:#ff0000;stroke-width:1.28611" />
    <path
       d="m -372.53839,1164.7155 h -150.22849 a 8.4448,8.4448 0 0 1 0,-16.8896 h 150.22849 a 8.4448,8.4448 0 1 1 0,16.8896 z"
       fill="#cccccc"
       id="path21"
       style="fill:#ffff00;stroke-width:1.28611" />
    <path
       d="m -372.53839,1196.7168 h -261.34424 a 8.4447936,8.4447936 0 1 1 0,-16.8895 h 261.34424 a 8.4448,8.4448 0 1 1 0,16.8895 z"
       fill="#cccccc"
       id="path22"
       style="fill:#008080;stroke-width:1.28611" />
    <path
       d="m -559.21284,1132.2697 h -150.22851 a 8.4448,8.4448 0 0 1 0,-16.8896 h 150.22851 a 8.4448,8.4448 0 1 1 0,16.8896 z"
       fill="#cccccc"
       id="path23"
       style="fill:#ffff00;stroke-width:1.28611" />
    <path
       d="m -476.54273,1132.7142 h -42.66844 a 8.4448,8.4448 0 0 1 0,-16.8896 h 42.66844 a 8.4448,8.4448 0 0 1 0,16.8896 z"
       fill="#cccccc"
       id="path24"
       style="fill:#ff00ff;stroke-width:1.28611" />
    <path
       d="m -666.77289,1196.7168 h -42.66846 a 8.4447936,8.4447936 0 0 1 0,-16.8895 h 42.66846 a 8.4448,8.4448 0 1 1 0,16.8895 z"
       fill="#cccccc"
       id="path25"
       style="fill:#000080;stroke-width:1.28611" />
    <path
       d="m -598.44788,1074.0539 a 12.085504,12.085504 0 0 1 -8.5186,-3.4855 l -56.47153,-55.765 a 11.769994,11.769994 0 0 1 0,-16.74951 l 56.24333,-55.53997 a 12.477498,12.477498 0 0 1 17.54713,0.0553 v 0 a 12.461152,12.461152 0 0 1 2.5e-4,17.60264 l -41.79363,41.79434 a 6.96222,6.96222 0 0 0 0,9.8343 l 41.5669,41.5674 a 12.112615,12.112615 0 0 1 -8.57385,20.686 z"
       fill="#0bdb73"
       id="path26"
       style="stroke-width:1.28611" />
    <path
       d="m -508.4642,1074.0539 a 12.112615,12.112615 0 0 1 -8.57385,-20.686 l 41.5669,-41.5674 a 6.96222,6.96222 0 0 0 0,-9.8343 l -41.79363,-41.79438 a 12.446696,12.446696 0 0 1 2.4e-4,-17.60264 v 0 a 12.477473,12.477473 0 0 1 17.54713,-0.0553 l 56.24333,55.53997 a 11.769956,11.769956 0 0 1 0,16.74955 l -56.47153,55.7649 a 12.088063,12.088063 0 0 1 -8.51859,3.4856 z"
       fill="#0bdb73"
       id="path27"
       style="stroke-width:1.28611" />
  </g>
  <g
     id="g9"
     transform="translate(357.34112,208.81598)">
    <g
       id="g109"
       transform="matrix(0.87850069,0,0,0.87850069,517.88546,-16.37913)">
      <path
         d="m 175.74923,635.04964 a 6.41621,6.41621 0 0 0 6.18311,4.331 l 26.49182,-0.68178 a 6.32847,6.32847 0 0 0 5.98085,-4.657 l 3.74889,-40.08722 a 9.794,9.794 0 0 0 4.23792,0.87079 9.6613325,9.6613325 0 0 0 -0.48489,-19.31658 8.18393,8.18393 0 0 0 -1.73618,0.18056 6.54767,6.54767 0 0 0 -4.87405,-2.103 l -40.75052,1.05229 a 5.85418,5.85418 0 0 0 -1.00519,0.1248 6.36455,6.36455 0 0 0 -4.87318,8.26464 z m 43.17346,-43.81684 2.66763,-9.55274 a 6.50638,6.50638 0 0 0 0.0204,-3.37458 c 0.12944,-3.4e-4 0.24363,-0.0617 0.37306,-0.062 a 6.91049,6.91049 0 0 1 0.32358,13.81714 6.50523,6.50523 0 0 1 -3.38464,-0.82782 z"
         transform="translate(-159.91993,-161.86389)"
         fill="#2f2e41"
         id="path93" />
      <path
         d="m 173.541,574.76349 c 0.86818,4.96412 10.62909,8.45388 22.36585,7.8473 10.79272,-0.49726 19.61746,-4.287 21.23421,-8.77851 a 6.025,6.025 0 0 0 -1.84435,-0.24588 l -40.75052,1.05229 a 5.85418,5.85418 0 0 0 -1.00519,0.1248 z"
         transform="translate(-159.91993,-161.86389)"
         fill="#3f3d56"
         id="path94" />
      <path
         d="m 198.05786,613.02141 a 0.49675,0.49675 0 0 0 0.15092,-0.0664 l 5.75315,-3.76566 a 0.49923,0.49923 0 0 0 3.2e-4,-0.83621 l -5.97979,-3.91667 a 0.49972,0.49972 0 1 0 -0.54792,0.83585 l 5.34091,3.49818 -5.114,3.34794 a 0.49991,0.49991 0 0 0 0.39637,0.903 z"
         transform="translate(-159.91993,-161.86389)"
         fill="#0bdb73"
         id="path95" />
      <path
         d="m 188.97111,613.44045 a 0.5,0.5 0 0 0 0.12607,-0.91842 l -5.30305,-3.04034 5.1256,-3.80723 a 0.49963695,0.49963695 0 1 0 -0.596,-0.80208 l -5.73863,4.26265 a 0.49951,0.49951 0 0 0 0.0492,0.83476 l 5.96526,3.41968 a 0.49965,0.49965 0 0 0 0.37157,0.051 z"
         transform="translate(-159.91993,-161.86389)"
         fill="#0bdb73"
         id="path96" />
      <path
         d="m 197.48564,616.32142 a 0.482,0.482 0 0 0 0.137,-0.0579 0.49976,0.49976 0 0 0 0.16751,-0.68714 l -8.15548,-13.40836 a 0.50026,0.50026 0 0 0 -0.85441,0.52058 l 8.15544,13.40835 a 0.50033,0.50033 0 0 0 0.54994,0.22442 z"
         transform="translate(-159.91993,-161.86389)"
         fill="#0bdb73"
         id="path97" />
    </g>
    <polygon
       points="167.759,510.228 89.41,494.381 85.302,514.694 161.695,540.208 "
       fill="#ffb6b6"
       id="polygon1"
       transform="matrix(0.87850069,0,0,0.87850069,181.15667,-30.964077)" />
    <path
       d="m 266.45058,399.97702 -7.10812,35.1426 -2.9e-4,0.002 a 22.850374,22.850374 0 0 1 -26.92584,17.86475 l -0.72776,-0.14724 11.63823,-57.53853 z"
       fill="#2f2e41"
       id="path1"
       style="stroke-width:0.878501" />
    <circle
       id="fd4e5ab9-ffc8-4bbb-9267-3af70c31dae1"
       data-name="Ellipse 276"
       cx="335.75467"
       cy="111.9794"
       r="45.568707"
       fill="#feb8b8"
       style="stroke-width:0.878501" />
    <path
       id="a8c9bbe2-1461-49cf-8211-f8d251166dc5-297"
       data-name="Path 1461"
       d="m 378.31631,72.666491 a 52.628464,52.628464 0 0 0 -29.94023,-22.8867 l -5.59429,4.082393 v -5.300873 a 48.443164,48.443164 0 0 0 -9.04856,-0.527101 l -4.82648,4.367027 v -4.004206 a 52.125891,52.125891 0 0 0 -35.95879,21.388856 c -10.48139,15.110212 -12.25069,36.131853 -1.94149,51.363303 2.82965,-8.69716 6.26459,-16.85755 9.09512,-25.553831 a 25.739341,25.739341 0 0 0 6.70559,0.03251 l 3.44285,-8.033889 0.96196,7.693909 c 10.67202,-0.929454 26.50085,-2.971089 36.61766,-4.841417 l -0.98392,-5.902647 5.88596,4.90467 c 3.09935,-0.713343 4.93981,-1.360798 4.78782,-1.855394 7.52436,12.130338 16.73281,19.877829 24.25629,32.008169 2.85779,-17.10439 6.14691,-31.326461 -3.45949,-46.934774 z"
       fill="#2f2e41"
       style="stroke-width:0.878501" />
    <ellipse
       id="f6be96d1-713f-4c17-812c-ecd79c56fe95"
       data-name="Ellipse 260"
       cx="350.58115"
       cy="377.35162"
       rx="117.33255"
       ry="32.819908"
       fill="#2f2e41"
       style="stroke-width:0.878501" />
    <path
       d="m 433.76006,229.16089 c -1.56698,-9.42719 -3.18329,-19.03535 -7.56463,-27.52782 -2.87959,-5.56266 -7.45057,-10.86354 -13.61248,-11.96342 a 13.168409,13.168409 0 0 1 -3.54446,-0.82052 c -1.80546,-0.86972 -26.06805,-14.72016 -29.92437,-17.13252 -3.31106,-2.07094 -8.53792,-5.90548 -11.17343,-5.90548 -2.65136,-0.0582 -12.81804,2.30789 -52.49942,-0.794 a 143.31956,143.31956 0 0 0 -19.33602,9.50689 c -0.12783,-0.0842 -41.18573,21.96369 -42.72825,21.90567 -2.92119,-0.12299 -5.63646,1.74734 -7.31112,4.10265 -1.67421,2.35526 -2.45963,5.271 -3.28194,8.09011 8.96774,19.97096 17.17281,39.96739 26.14141,59.93834 a 5.11406,5.11406 0 0 1 0.64858,2.45981 6.0033047,6.0033047 0 0 1 -1.1157,2.4598 c -4.39808,7.0649 -4.25824,15.95094 -3.77781,24.25452 0.48086,8.30359 1.07539,17.07454 -2.6355,24.5172 -1.00934,2.04339 -2.32194,3.91372 -3.28194,5.95711 -2.24815,4.62795 -3.0606,19.4298 -1.74756,24.40212 l 164.51383,4.71298 c -3.53717,-9.72327 12.23081,-128.16344 12.23081,-128.16344 z"
       fill="#0bdb73"
       id="path2"
       style="stroke-width:0.878501" />
    <path
       id="eb41f72e-aba6-4a16-bf55-c7027d2f1a4b-298"
       data-name="Path 1421"
       d="m 228.56354,269.44624 a 29.04557,29.04557 0 0 0 -0.0984,7.16329 l 2.35789,33.86269 c 0.22138,3.19159 0.43925,6.37528 0.73882,9.55896 0.56575,6.1785 1.41087,12.3078 2.4598,18.42831 a 3.2820786,3.2820786 0 0 0 3.36378,3.1916 c 10.37949,2.19625 21.10335,2.1084 31.69631,1.51014 16.16441,-0.90222 57.51895,-2.60915 60.04552,-5.89123 2.52657,-3.28208 1.0542,-8.59086 -2.24018,-11.24481 -3.29438,-2.65395 -57.86772,-9.1241 -57.86772,-9.1241 0.53325,-4.22559 2.14179,-8.2052 3.66774,-12.21731 2.74093,-7.11586 5.30088,-14.4654 5.35007,-22.08815 0.0492,-7.62275 -2.82262,-15.63731 -9.067,-20.00434 -5.1366,-3.58516 -11.74995,-4.25018 -18.00927,-4.10259 -4.55414,0.13089 -12.42288,-0.9602 -16.58258,0.82052 -3.29173,1.44955 -5.19984,6.91385 -5.81479,10.13702 z"
       fill="#fbbebe"
       style="stroke-width:0.878501" />
    <path
       id="a363f2f7-2464-40a1-ad01-344825aa0b75-299"
       data-name="Path 1423"
       d="m 434.05187,345.99269 c 2.73214,-1.0419 5.74364,-0.66503 8.67256,-0.27058 9.42807,1.28788 18.99494,2.60915 27.73339,6.37528 4.10259,1.757 8.00841,4.1026 10.78183,7.55511 2.45981,3.10989 3.89703,6.91731 5.25959,10.66675 l 3.15118,8.63215 a 41.553364,41.553364 0 0 1 2.74883,10.11681 c 0.9848,10.33029 -6.0801,20.06935 -14.96614,25.43611 -8.88603,5.36676 -19.34722,7.2775 -29.53871,9.27961 -10.19148,2.0021 -20.4225,4.2168 -30.57182,6.56415 a 123.06593,123.06593 0 0 1 -14.38369,2.83053 c -10.86354,1.2299 -22.21904,-0.58244 -32.54142,3.0115 -4.1026,1.43635 -8.13141,3.56935 -12.38686,4.56206 a 77.083639,77.083639 0 0 1 -8.56626,1.30457 l -19.5361,2.23139 a 106.5735,106.5735 0 0 1 -11.97924,0.91891 c -8.53288,0 -16.92695,-2.02055 -25.21297,-4.0411 a 6.3759032,6.3759032 0 0 1 -2.4598,-0.99271 c -1.31248,-1.03399 -1.59975,-2.86391 -1.78863,-4.52076 q -1.25538,-11.00322 -2.19625,-22.03016 c -0.19678,-2.38777 -0.34437,-4.97232 0.9602,-6.98233 1.64104,-2.4598 4.84142,-3.23288 7.76243,-3.70903 a 202.56464,202.56464 0 0 1 37.48124,-2.60124 c 4.76674,-4.76674 12.62756,-4.79134 18.87195,-7.38467 a 56.133664,56.133664 0 0 0 6.65464,-3.61855 86.972069,86.972069 0 0 1 36.53684,-11.54438 34.010601,34.010601 0 0 0 7.47517,-1.06649 c 4.83175,-1.50136 9.23919,-5.58815 14.20272,-4.58666 0.61495,-1.69814 1.0419,-3.9717 2.4598,-5.13659 0.7028,-0.59914 1.57515,-1.00061 2.22348,-1.64104 1.37047,-1.38627 1.49346,-3.56935 1.28789,-5.50556 -0.20557,-1.93622 -0.66503,-3.92163 -0.16428,-5.80953 a 8.0301728,8.0301728 0 0 1 0.911,-2.0267 c 2.45278,-4.24494 6.16973,-6.42715 11.11743,-6.01685 z"
       fill="#2f2e41"
       style="stroke-width:0.878501" />
    <path
       id="b53ad979-99f4-4c6e-a0f8-957060c42096-300"
       data-name="Path 1430"
       d="m 242.30944,209.2303 a 8.4925189,8.4925189 0 0 0 -1.82113,2.91311 137.73167,137.73167 0 0 0 -11.56898,47.27739 4.7263337,4.7263337 0 0 1 -0.53325,2.28938 10.017333,10.017333 0 0 1 -1.20618,1.30457 4.5295496,4.5295496 0 0 0 0.5417,6.38281 q 0.11186,0.0943 0.22962,0.18134 c 1.35377,-2.54765 4.59456,-3.38047 7.47517,-3.60185 13.79246,-1.0911 27.26514,5.32547 41.09889,4.84141 -0.97601,-3.37256 -2.37986,-6.61335 -3.17578,-10.02633 -3.52015,-15.15501 5.25959,-31.65501 -0.12299,-46.25218 -1.07528,-2.92101 -2.87182,-5.79283 -5.70235,-7.07281 a 15.189725,15.189725 0 0 0 -3.65104,-0.96635 c -3.49556,-0.63164 -10.45416,-3.33127 -13.83375,-2.24808 -1.24748,0.40235 -1.73944,1.57515 -2.77343,2.2841 -1.57076,1.00327 -3.65456,1.37223 -4.9565,2.69349 z"
       fill="#0bdb73"
       style="stroke-width:0.878501" />
    <path
       id="a1197c30-bfd4-4098-bcf9-2468e7a33bf1-301"
       data-name="Path 1421"
       d="m 433.85851,259.30922 c -4.1597,-1.78072 -12.02843,-0.68963 -16.58258,-0.82052 -6.25932,-0.14759 -12.87267,0.51743 -18.00926,4.10259 -6.24439,4.36703 -9.1162,12.38159 -9.06701,20.00434 0.0492,7.62275 2.60915,14.97229 5.35007,22.08815 1.52596,4.01211 3.13449,7.99172 3.66774,12.21731 0,0 -54.57334,6.47015 -57.86772,9.1241 -3.29438,2.65395 -4.76674,7.96273 -2.24017,11.24481 2.52656,3.28208 81.36234,6.57734 91.74182,4.38109 a 3.2820786,3.2820786 0 0 0 3.36378,-3.1916 c 1.04893,-6.12051 1.89405,-12.24981 2.4598,-18.42831 0.29957,-3.18368 0.51744,-6.36737 0.73882,-9.55896 l 2.3579,-33.86269 a 29.046431,29.046431 0 0 0 -0.0984,-7.16329 c -0.61494,-3.22317 -2.52305,-8.68747 -5.8148,-10.13702 z"
       fill="#fbbebe"
       style="stroke-width:0.878501" />
    <path
       id="ebe46053-6aac-4aa7-8615-21a6fa79538d-302"
       data-name="Path 1430"
       d="m 420.97091,206.53681 c -1.034,-0.70895 -1.52596,-1.88175 -2.77343,-2.2841 -3.37959,-1.08319 -10.3382,1.61644 -13.83375,2.24808 a 15.189769,15.189769 0 0 0 -3.65105,0.96635 c -2.83053,1.27998 -4.62706,4.1518 -5.70235,7.07281 -5.38257,14.59717 3.39716,31.09717 -0.12299,46.25218 -0.79592,3.41298 -2.19976,6.65377 -3.17578,10.02633 13.83375,0.48406 27.30644,-5.93251 41.0989,-4.84141 2.8806,0.22138 6.12139,1.0542 7.47516,3.60185 q 0.11772,-0.087 0.22962,-0.18134 a 4.5295496,4.5295496 0 0 0 0.54171,-6.38281 10.016111,10.016111 0 0 1 -1.20618,-1.30457 4.7262722,4.7262722 0 0 1 -0.53325,-2.28938 137.73146,137.73146 0 0 0 -11.56897,-47.27739 8.4925189,8.4925189 0 0 0 -1.82114,-2.91311 c -1.30193,-1.32126 -3.38574,-1.69022 -4.9565,-2.69349 z"
       fill="#0bdb73"
       style="stroke-width:0.878501" />
    <polygon
       points="220.005,512.846 299.243,523.378 296.513,543.921 215.975,543.166 "
       fill="#ffb6b6"
       id="polygon2"
       transform="matrix(0.87850069,0,0,0.87850069,181.15667,-30.964077)" />
    <path
       d="m 462.14788,426.54586 -7.73432,58.19204 -0.73604,-0.0978 a 22.850365,22.850365 0 0 1 -19.64016,-25.65959 l 2e-4,-0.002 4.72396,-35.54169 z"
       fill="#2f2e41"
       id="path3"
       style="stroke-width:0.878501" />
    <path
       id="a0b0f7ea-4ed9-4447-aa64-e2335b2c3196-303"
       data-name="Path 1427"
       d="m 277.58916,355.12553 c 0,0.82052 -1.28789,0 -1.40561,-0.8785 -0.90222,-6.63795 -6.17058,-12.11101 -12.30779,-14.76935 -6.13721,-2.65835 -13.12831,-2.79803 -19.77417,-2.16639 -10.05093,0.95142 -21.33351,4.80013 -25.00916,14.19482 -0.86972,2.19625 -9.01693,21.75167 -8.22189,26.14945 2.14179,11.73325 10.16601,21.76837 19.88926,28.71819 9.72324,6.94981 21.08401,11.10161 32.41667,14.84666 a 562.19606,562.19606 0 0 0 91.89733,21.94846 c 5.05401,0.76342 10.1581,1.46885 14.99864,3.0932 4.33188,1.45216 8.38529,3.62645 12.61966,5.33338 9.84624,3.95325 20.4392,5.36588 30.93289,6.75303 1.78863,0.23017 3.83992,0.39357 5.16119,-0.82052 1.70693,-1.5813 1.14205,-4.34067 0.65624,-6.61335 a 35.568736,35.568736 0 0 1 4.19308,-25.23845 c 1.757,-2.95352 4.04111,-5.98171 3.70903,-9.39995 -0.39357,-3.98752 -4.36527,-6.81014 -8.32028,-7.45057 -3.95501,-0.64043 -7.97503,0.30396 -11.94761,0.82052 a 6.3998775,6.3998775 0 0 1 -4.06131,-0.40235 8.1128045,8.1128045 0 0 1 -1.59184,-1.41087 17.993451,17.993451 0 0 0 -20.95575,-2.92893 c -1.46886,0.82052 -3.68971,-1.00939 -5.2183,-1.69814 l -17.25551,-7.81163 c -19.82337,-8.96773 -39.74513,-17.97763 -60.71757,-23.65538 a 12.750989,12.750989 0 0 1 -4.67714,-1.945 c -1.0419,-0.82052 -1.78863,-1.93271 -2.74883,-2.84723 -2.09259,-1.9775 -5.00745,-2.76552 -7.51557,-4.16848 -2.50812,-1.40297 -5.32021,-4.83877 -4.74566,-7.65262 z"
       fill="#2f2e41"
       style="stroke-width:0.878501" />
    <circle
       cx="322.25867"
       cy="330.96927"
       r="12.299009"
       fill="#fbbebe"
       id="circle3"
       style="stroke-width:0.878501" />
    <circle
       cx="349.49219"
       cy="330.96927"
       r="12.299009"
       fill="#fbbebe"
       id="circle4"
       style="stroke-width:0.878501" />
    <path
       d="M 425.41095,358.68346 H 256.44112 a 7.4495102,7.4495102 0 0 1 -7.44108,-7.44066 V 248.73361 a 7.4495102,7.4495102 0 0 1 7.44108,-7.44066 h 168.96983 a 7.4495102,7.4495102 0 0 1 7.44109,7.44066 V 351.2428 a 7.4495102,7.4495102 0 0 1 -7.44109,7.44066 z"
       fill="#3f3d56"
       id="path4"
       style="stroke-width:0.878501" />
    <circle
       id="e793da3b-cee2-4a15-ae11-6dab45a6c728"
       data-name="Ellipse 263"
       cx="340.51614"
       cy="299.98822"
       r="4.9231181"
       fill="#ffffff"
       style="stroke-width:0.878501" />
  </g>
  <g
     id="g2"
     transform="translate(915.75539,202.02158)">
    <path
       d="m -467.76725,244.8148 h -427.70884 a 20.302245,20.302245 0 0 1 -20.2793,-20.2793 V 6.9939366 a 20.302233,20.302233 0 0 1 20.2793,-20.2792986 h 427.70884 a 20.302245,20.302245 0 0 1 20.2793,20.2792986 V 224.5355 a 20.302257,20.302257 0 0 1 -20.2793,20.2793 z"
       fill="#e6e6e6"
       id="path25-7"
       style="stroke-width:1.22905" />
    <path
       d="m -472.68344,230.06622 h -417.87645 a 10.4586,10.4586 0 0 1 -10.44692,-10.44691 V 11.91013 a 10.458587,10.458587 0 0 1 10.44692,-10.4469112 h 417.87645 a 10.458587,10.458587 0 0 1 10.44691,10.4469112 v 207.70918 a 10.4586,10.4586 0 0 1 -10.44691,10.44691 z"
       fill="#ffffff"
       id="path26-5"
       style="fill:#b3b3b3;stroke-width:1.22905" />
    <path
       d="m -523.56242,106.45016 h -211.39632 a 9.8323895,9.8323895 0 1 1 0,-19.664779 h 211.39632 a 9.8323895,9.8323895 0 0 1 0,19.664779 z"
       fill="#cccccc"
       id="path28"
       style="fill:#008000;stroke-width:1.22905" />
    <path
       d="m -592.38907,64.66251 h -142.56961 a 9.8323875,9.8323875 0 1 1 0,-19.664775 h 142.56961 a 9.8323875,9.8323875 0 0 1 0,19.664775 z"
       fill="#cccccc"
       id="path29"
       style="fill:#ffff00;stroke-width:1.22905" />
    <circle
       cx="-822.46759"
       cy="75.723961"
       r="30.72621"
       fill="#0bdb73"
       id="circle29"
       style="stroke-width:1.22905" />
    <circle
       cx="-588.70862"
       cy="176.69931"
       r="9.832387"
       fill="#e6e6e6"
       id="circle30"
       style="fill:#ffff00;stroke-width:1.22905" />
    <circle
       cx="-554.29529"
       cy="176.69931"
       r="9.832387"
       fill="#e6e6e6"
       id="circle31"
       style="fill:#00ff00;stroke-width:1.22905" />
    <circle
       cx="-519.88196"
       cy="176.69931"
       r="9.832387"
       fill="#e6e6e6"
       id="circle32"
       style="fill:#ff0000;stroke-width:1.22905" />
  </g>
  <g
     id="g3"
     transform="translate(909.53763,219.26273)">
    <path
       d="M -381.01895,-25.475945 H -2.229055 V -217.03589 H -381.01895 Z"
       fill="#ffffff"
       id="path2-3"
       style="fill:#e6e6e6;stroke-width:1.04101" />
    <path
       d="M 4.597366e-5,-23.249138 H -383.24809 V -219.26273 H 4.597366e-5 Z M -381.01895,-25.475945 H -2.229055 V -217.03589 H -381.01895 Z"
       fill="#3f3d56"
       id="path3-6"
       style="stroke-width:1.04101" />
    <polygon
       points="601.428,362.438 591.002,372.864 601.428,383.289 598.821,385.897 585.787,372.864 598.821,359.83 "
       fill="#0bdb73"
       id="polygon10"
       transform="matrix(1.0415623,0,0,1.0404722,-947.56504,-540.52914)" />
    <rect
       x="-313.01059"
       y="-152.57472"
       width="38.586498"
       height="3.2121563"
       fill="#0bdb73"
       id="rect3"
       style="stroke-width:1.04101" />
    <rect
       x="-261.56198"
       y="-152.57472"
       width="38.586445"
       height="3.2121563"
       fill="#0bdb73"
       id="rect4"
       style="stroke-width:1.04101" />
    <rect
       x="-209.30946"
       y="-152.57472"
       width="113.34775"
       height="3.2121563"
       fill="#0bdb73"
       id="rect7"
       style="stroke-width:1.04101" />
    <rect
       x="-313.01059"
       y="-122.8621"
       width="113.34775"
       height="3.2121563"
       fill="#0bdb73"
       id="rect8"
       style="stroke-width:1.04101" />
    <rect
       x="-186.80064"
       y="-122.8621"
       width="38.586445"
       height="3.2121563"
       fill="#0bdb73"
       id="rect5"
       style="stroke-width:1.04101" />
    <rect
       x="-134.54819"
       y="-122.8621"
       width="38.586445"
       height="3.2121563"
       fill="#0bdb73"
       id="rect6"
       style="stroke-width:1.04101" />
    <rect
       x="-313.01059"
       y="-93.14949"
       width="113.34775"
       height="3.2121563"
       fill="#0bdb73"
       id="rect9"
       style="stroke-width:1.04101" />
    <rect
       x="-174.74234"
       y="-93.14949"
       width="78.780685"
       height="3.2121563"
       fill="#0bdb73"
       id="rect10"
       style="stroke-width:1.04101" />
    <rect
       x="50.634739"
       y="-100.7446"
       width="27.692446"
       height="3.8411"
       transform="matrix(0.29031274,-0.95693182,0.95710042,0.28975642,0,0)"
       fill="#0bdb73"
       id="rect11"
       style="stroke-width:1.04101" />
    <polygon
       points="850.124,422.638 852.732,420.031 865.765,433.064 852.732,446.098 850.124,443.491 860.55,433.064 "
       fill="#0bdb73"
       id="polygon11"
       transform="matrix(1.0415623,0,0,1.0404722,-947.56504,-540.52914)" />
  </g>
</svg>
